# AST/ASF file generated using VICON BodyLanguage
# -----------------------------------------------
:version 1.10
:name VICON
:units
  mass 1.0
  length 0.45
  angle deg
:documentation
   .ast/.asf automatically generated from VICON data using
   VICON BodyBuilder and BodyLanguage model FoxedUp or BRILLIANT.MOD
:root
   order TX TY TZ RX RY RZ
   axis XYZ
   position 0 0 0  
   orientation 0 0 0 
:bonedata
  begin
     id 1 
     name lhipjoint
     direction 0.690799 -0.707083 0.151096 
     length 2.54797 
     axis 0 0 0  XYZ
  end
  begin
     id 2 
     name lfemur
     direction 0.34202 -0.939693 0  
     length 7.21646  
     axis 0 0 20  XYZ
    dof rx ry rz
    limits (-160.0 20.0)
           (-70.0 70.0)
           (-60.0 70.0)
  end
  begin
     id 3 
     name ltibia
     direction 0.34202 -0.939693 0   
     length 8.16759   
     axis 0 0 20   XYZ
    dof rx
    limits (-10.0 170.0)
  end
  begin
     id 4 
     name lfoot
     direction 0.0487203 -0.133858 0.989802   
     length 1.93375   
     axis -90 7.62852e-016 20   XYZ
    dof rx rz
    limits (-45.0 90.0)
           (-70.0 20.0)
  end
  begin
     id 5 
     name ltoes
     direction 1.53453e-011 -4.21783e-011 1   
     length 0.979747   
     axis -90 7.62852e-016 20   XYZ
    dof rx
    limits (-90.0 20.0)
  end
  begin
     id 6 
     name rhipjoint
     direction -0.694693 -0.703425 0.150315   
     length 2.56122  
     axis 0 0 0  XYZ 
  end
  begin
     id 7 
     name rfemur
     direction -0.34202 -0.939693 0   
     length 7.36786   
     axis 0 0 -20   XYZ
    dof rx ry rz
    limits (-160.0 20.0)
           (-70.0 70.0)
           (-70.0 60.0)
  end
  begin
     id 8 
     name rtibia
     direction -0.34202 -0.939693 0   
     length 8.07288   
     axis 0 0 -20   XYZ
    dof rx
    limits (-10.0 170.0)
 end
 begin
     id 9 
     name rfoot
     direction -0.0428397 -0.117701 0.992125   
     length 1.88295  
     axis -90 -7.62852e-016 -20   XYZ
    dof rx rz
    limits (-45.0 90.0)
           (-20.0 70.0)
  end
  begin
     id 10 
     name rtoes
     direction -1.53456e-011 -4.2187e-011 1   
     length 0.955578   
     axis -90 -7.62852e-016 -20   XYZ
    dof rx
    limits (-90.0 20.0)
  end
  begin
     id 11 
     name lowerback
     direction 0.0288145 0.999398 -0.0193241   
     length 1.92149   
     axis 0 0 0   XYZ
    dof rx ry rz
    limits (-20.0 45.0)
           (-30.0 30.0)
           (-30.0 30.0)
  end
  begin
     id 12 
     name upperback
     direction 0.0233784 0.998099 0.0570278   
     length 1.90435   
     axis 0 0 0   XYZ
    dof rx ry rz
    limits (-20.0 45.0)
           (-30.0 30.0)
           (-30.0 30.0)
  end
  begin
     id 13 
     name thorax
     direction 0.0096694 0.997833 0.0650817   
     length 1.9111   
     axis 0 0 0   XYZ
    dof rx ry rz
    limits (-20.0 45.0)
           (-30.0 30.0)
           (-30.0 30.0)
  end
  begin
     id 14 
     name lowerneck
     direction 0.00516803 0.999916 0.0118722   
     length 1.74664   
     axis 0 0 0   XYZ
    dof rx ry rz
    limits (-20.0 45.0)
           (-30.0 30.0)
           (-30.0 30.0)
  end
  begin
     id 15 
     name upperneck
     direction -0.0510851 0.996117 -0.071696   
     length 1.68498   
     axis 0 0 0   XYZ
    dof rx ry rz
    limits (-20.0 45.0)
           (-30.0 30.0)
           (-30.0 30.0)
  end
  begin
     id 16
     name head
     direction -0.019188 0.999436 -0.0275702  
     length 1.83483  
     axis 0 0 0   XYZ
    dof rx ry rz
    limits (-20.0 45.0)
           (-30.0 30.0)
           (-30.0 30.0)
  end
  begin
     id 17 
     name lclavicle
     direction 0.967006 0.248456 -0.0562957  
     length 3.39395  
     axis 0 0 0   XYZ
    dof ry rz
    limits (-20.0 10.0)
           (0.0 20.0)
  end
  begin
     id 18 
     name lhumerus
     direction 1 -4.48962e-011 -5.62711e-019   
     length 5.24318   
     axis 180 -30 -90   XYZ
    dof rx ry rz
    limits (-60.0 90.0)
           (-90.0 90.0)
           (-90.0 90.0)
  end
  begin
     id 19
     name lradius
     direction 1 -4.48966e-011 7.90625e-027   
     length 2.98999   
     axis 180 -30 -90   XYZ
    dof rx
    limits (-10.0 170.0)
  end
  begin
     id 20
     name lwrist
     direction 1 -4.48959e-011 1.61068e-026   
     length 1.49499   
     axis -9.31229e-015 90 90   XYZ
    dof ry
    limits (-180.0 0.0)
 end
  begin
     id 21 
     name lhand
     direction 1 -4.49017e-011 3.22136e-026   
     length 0.726745   
     axis -2.0555e-014 90 90   XYZ
    dof rx rz
    limits (-90.0 90.0)
           (-45.0 45.0)
  end
  begin
     id 22 
     name lfingers
     direction 1 -4.4898e-011 6.44272e-026   
     length 0.58592   
     axis -4.11101e-014 90 90   XYZ
    dof rx
    limits (0.0 90.0)
  end
  begin
     id 23
     name lthumb
     direction 0.707107 -6.34922e-011 0.707107   
     length 0.841268   
     axis -90 45 2.85299e-015   XYZ
    dof rx rz
    limits (-45.0 45.0)
           (-45.0 45.0)
  end
  begin
     id 24 
     name rclavicle
     direction -0.972232 0.230238 0.0419005   
     length 3.40416  
     axis 0 0 0   XYZ 
    dof ry rz
    limits (-10.0 20.0)
           (-20.0 0.0)
  end
  begin
     id 25 
     name rhumerus
     direction -1 -4.48976e-011 2.48487e-027  
     length 5.37045   
     axis 180 30 90   XYZ
    dof rx ry rz
    limits (-90.0 60.0)
           (-90.0 90.0)
           (-90.0 90.0)
  end
  begin
     id 26 
     name rradius
     direction -1 -4.48942e-011 7.87951e-027   
     length 2.92792   
     axis 180 30 90   XYZ
    dof rx
    limits (-10.0 170.0)
  end
  begin
     id 27 
     name rwrist
     direction -1 -4.48969e-011 1.61068e-026   
     length 1.46396   
     axis -9.31229e-015 -90 -90   XYZ
    dof ry
    limits (-180.0 0.0)
  end
  begin
     id 28
     name rhand
     direction -1 -4.49043e-011 3.22136e-026   
     length 0.784497   
     axis -2.0555e-014 -90 -90   XYZ
    dof rx rz
    limits (-90.0 90.0)
           (-45.0 45.0)
  end
  begin
     id 29
     name rfingers
     direction -1 -4.48823e-011 6.44272e-026   
     length 0.632482   
     axis -4.11101e-014 -90 -90   XYZ
    dof rx
    limits (0.0 90.0)
  end
  begin
     id 30
     name rthumb
     direction -0.707107 -6.34923e-011 0.707107   
     length 0.908121   
     axis -90 -45 -2.85299e-015   XYZ
    dof rx rz
    limits (-45.0 45.0)
           (-45.0 45.0)
  end
:hierarchy
  begin
    root lhipjoint rhipjoint lowerback
    lhipjoint lfemur
    lfemur ltibia
    ltibia lfoot
    lfoot ltoes
    rhipjoint rfemur
    rfemur rtibia
    rtibia rfoot
    rfoot rtoes
    lowerback upperback
    upperback thorax
    thorax lowerneck lclavicle rclavicle
    lowerneck upperneck
    upperneck head
    lclavicle lhumerus
    lhumerus lradius
    lradius lwrist
    lwrist lhand lthumb
    lhand lfingers
    rclavicle rhumerus
    rhumerus rradius
    rradius rwrist
    rwrist rhand rthumb
    rhand rfingers
  end

#!OML:ASF E:\Style6\Style6.ASF
:FULLY-SPECIFIED
:DEGREES
662
root 1.15404 17.7525 -1.87886 13.3969 1.5396 0.116067
lowerback 25.1215 -0.660798 1.47402
upperback 12.4346 -0.455384 1.66211
thorax -0.210681 -0.21387 1.0645
lowerneck 3.4145 -1.89785 2.35741
upperneck -20.7832 -3.27083 -4.20586
head -6.99809 -1.43946 -1.52469
rclavicle -7.55382e-015 8.74653e-015
rhumerus 8.92334 30.8391 -86.0588
rradius 120.002
rwrist 33.8648
rhand -8.45724 5.68024
rfingers 7.12502
rthumb 17.4688 -23.5549
lclavicle -7.55382e-015 8.74653e-015
lhumerus 7.67925 -32.5187 85.0317
lradius 116.128
lwrist -26.7597
lhand -13.6713 22.4832
lfingers 7.12502
lthumb 12.446 52.0926
rfemur -35.2458 -0.323248 14.9433
rtibia 29.027
rfoot -2.45764 -15.5684
rtoes -10.4232
lfemur -36.1587 -2.53947 -20.7557
ltibia 33.0798
lfoot -3.73296 7.00595
ltoes -19.1497
663
root 1.1515 17.754 -1.87485 13.2937 1.53447 0.144116
lowerback 26.0367 -0.690218 1.36609
upperback 11.8558 -0.480622 1.6311
thorax -1.28727 -0.232039 1.11178
lowerneck 3.0851 -2.41252 2.27916
upperneck -19.1701 -3.8598 -3.76688
head -6.43379 -1.77674 -1.32977
rclavicle -6.75868e-015 -9.34288e-015
rhumerus 8.00369 31.0992 -86.6568
rradius 119.871
rwrist 33.6914
rhand -8.12661 5.34693
rfingers 7.12502
rthumb 17.787 -23.8596
lclavicle -6.75868e-015 -9.34288e-015
lhumerus 6.73159 -32.4268 85.4031
lradius 115.929
lwrist -26.8118
lhand -13.6281 22.6029
lfingers 7.12502
lthumb 12.4877 52.2098
rfemur -35.1205 -0.318586 14.9216
rtibia 29.0411
rfoot -2.50071 -15.5646
rtoes -10.4262
lfemur -36.0156 -2.54721 -20.7781
ltibia 33.0663
lfoot -3.78851 7.01411
ltoes -18.7218
664
root 1.14952 17.7562 -1.87029 13.2455 1.64449 0.103256
lowerback 25.2127 -0.635739 1.1261
upperback 12.3696 -0.48391 1.89945
thorax -0.321056 -0.252113 1.52726
lowerneck 2.31605 -3.01996 1.8149
upperneck -18.343 -4.65264 -3.30375
head -6.04366 -2.18866 -1.06723
rclavicle 1.07344e-014 1.27222e-014
rhumerus 8.98792 31.2024 -85.861
rradius 119.676
rwrist 33.5126
rhand -7.60743 5.38564
rfingers 7.12502
rthumb 18.2865 -23.7748
lclavicle 1.07344e-014 1.27222e-014
lhumerus 7.70226 -32.0176 85.229
lradius 115.583
lwrist -26.7201
lhand -13.4662 22.4614
lfingers 7.12502
lthumb 12.6438 52.0587
rfemur -35.0479 -0.368024 14.9892
rtibia 29.0894
rfoot -2.55681 -15.6202
rtoes -10.3891
lfemur -35.9533 -2.59724 -20.7213
ltibia 33.0638
lfoot -3.82438 6.99457
ltoes -18.6166
665
root 1.14332 17.7561 -1.87041 13.2419 1.76164 0.120493
lowerback 25.6038 -0.7292 1.14632
upperback 12.0664 -0.581537 1.8666
thorax -0.842469 -0.297357 1.51133
lowerneck 1.76778 -3.70283 1.46005
upperneck -16.9045 -5.48849 -2.7379
head -5.49729 -2.63821 -0.801725
rclavicle 5.96354e-015 -4.37326e-015
rhumerus 8.62377 31.3497 -86.206
rradius 119.536
rwrist 33.663
rhand -7.30366 5.67493
rfingers 7.12502
rthumb 18.5788 -23.4579
lclavicle 5.96354e-015 -4.37326e-015
lhumerus 7.32283 -31.8043 85.326
lradius 115.419
lwrist -26.6988
lhand -13.2077 22.4515
lfingers 7.12502
lthumb 12.893 52.0332
rfemur -35.0495 -0.360069 14.9841
rtibia 29.1613
rfoot -2.66046 -15.7424
rtoes -10.2188
lfemur -35.9598 -2.59352 -20.7284
ltibia 33.0525
lfoot -3.78436 6.8631
ltoes -19.1475
666
root 1.13414 17.752 -1.87423 13.3478 1.89664 0.176084
lowerback 25.4294 -0.77613 0.966952
upperback 12.0354 -0.678673 1.94325
thorax -0.789681 -0.354632 1.71863
lowerneck 1.51568 -4.52792 1.32921
upperneck -16.1072 -6.57515 -2.46139
head -5.2192 -3.19772 -0.649476
rclavicle -6.75868e-015 -2.54444e-014
rhumerus 8.80472 31.4513 -86.1342
rradius 119.392
rwrist 33.5603
rhand -7.06867 6.07521
rfingers 7.12502
rthumb 18.8048 -23.0358
lclavicle -6.75868e-015 -2.54444e-014
lhumerus 7.34414 -31.4617 85.3269
lradius 115.302
lwrist -26.8409
lhand -13.009 22.4741
lfingers 7.12502
lthumb 13.0845 52.0436
rfemur -35.1623 -0.340683 14.9368
rtibia 29.1925
rfoot -2.74642 -15.8883
rtoes -9.80278
lfemur -36.1011 -2.60952 -20.752
ltibia 33.0374
lfoot -3.68337 6.70533
ltoes -19.9672
667
root 1.13161 17.7532 -1.86987 13.2927 1.97538 0.187605
lowerback 25.1734 -0.863554 0.791027
upperback 12.2268 -0.832436 2.03318
thorax -0.447053 -0.442313 1.94872
lowerneck 1.05049 -5.45418 1.21617
upperneck -15.4732 -7.82363 -2.28938
head -4.96095 -3.83454 -0.53642
rclavicle 3.57812e-015 3.77691e-015
rhumerus 9.29204 31.6132 -85.9392
rradius 119.354
rwrist 33.2823
rhand -6.73509 6.60109
rfingers 7.12502
rthumb 19.1256 -22.4785
lclavicle 3.57812e-015 3.77691e-015
lhumerus 7.49615 -30.9399 85.2547
lradius 115.377
lwrist -27.087
lhand -12.6423 22.6292
lfingers 7.12502
lthumb 13.438 52.1757
rfemur -35.0763 -0.319939 14.9222
rtibia 29.199
rfoot -2.76711 -15.9695
rtoes -9.65434
lfemur -36.0214 -2.67239 -20.74
ltibia 33.0147
lfoot -3.70244 6.7156
ltoes -19.6654
668
root 1.13451 17.7593 -1.85849 13.0737 1.99937 0.0560424
lowerback 25.9193 -1.06863 0.940486
upperback 11.8835 -1.03776 1.96582
thorax -1.1794 -0.532824 1.86056
lowerneck 1.00063 -6.37672 0.963683
upperneck -14.759 -9.03485 -1.9328
head -4.7298 -4.45074 -0.343467
rclavicle -1.27222e-014 2.92213e-014
rhumerus 8.74483 32.0151 -86.514
rradius 119.427
rwrist 33.3758
rhand -6.789 6.98551
rfingers 7.12502
rthumb 19.0737 -22.0992
lclavicle -1.27222e-014 2.92213e-014
lhumerus 6.68858 -30.523 85.36
lradius 115.553
lwrist -26.8947
lhand -12.735 22.6166
lfingers 7.12502
lthumb 13.3486 52.169
rfemur -34.7763 -0.213705 15.0307
rtibia 29.1682
rfoot -2.86854 -16.0161
rtoes -9.49515
lfemur -35.735 -2.76367 -20.5889
ltibia 33.0046
lfoot -3.75722 6.85161
ltoes -19.3448
669
root 1.13463 17.7614 -1.85117 12.9488 2.0218 0.0136811
lowerback 25.1669 -1.08716 0.730715
upperback 12.4679 -1.13025 2.12518
thorax -0.161772 -0.598433 2.15337
lowerneck 0.932775 -7.28983 0.722948
upperneck -15.2812 -10.2962 -1.58159
head -4.87114 -5.08344 -0.130076
rclavicle -1.63003e-014 9.54166e-015
rhumerus 9.8243 32.4501 -85.7676
rradius 119.443
rwrist 33.6826
rhand -7.50362 6.73422
rfingers 7.12502
rthumb 18.3864 -22.4168
lclavicle -1.63003e-014 9.54166e-015
lhumerus 7.53393 -30.0136 85.0083
lradius 115.672
lwrist -26.4371
lhand -13.0315 22.4325
lfingers 7.12502
lthumb 13.0628 52.0034
rfemur -34.5692 -0.15541 15.0636
rtibia 29.1016
rfoot -2.96809 -16.0547
rtoes -9.20064
lfemur -35.5702 -2.79929 -20.5472
ltibia 33.0007
lfoot -3.79488 6.88983
ltoes -19.5591
670
root 1.13123 17.7623 -1.84832 12.9242 2.01919 -0.0126526
lowerback 26.1402 -1.22063 0.727871
upperback 11.9047 -1.26875 2.04777
thorax -1.24611 -0.657901 2.13605
lowerneck 1.1037 -8.07711 0.759222
upperneck -15.0517 -11.3676 -1.53928
head -4.84454 -5.619 -0.0684887
rclavicle 2.98177e-015 -2.24627e-014
rhumerus 9.00377 33.1582 -86.3842
rradius 119.566
rwrist 34.2272
rhand -8.45687 5.97848
rfingers 7.12502
rthumb 17.4692 -23.2566
lclavicle 2.98177e-015 -2.24627e-014
lhumerus 6.37136 -29.7284 85.3088
lradius 116.106
lwrist -26.2103
lhand -13.2089 22.3488
lfingers 7.12502
lthumb 12.8918 51.9306
rfemur -34.4939 -0.09771 15.0913
rtibia 29.0328
rfoot -2.94795 -16.0952
rtoes -8.90978
lfemur -35.5454 -2.7663 -20.5208
ltibia 33.0172
lfoot -3.80457 6.85754
ltoes -19.5168
